# xmcd
#
# Track frame offsets:
#	150
#	13793
#	26346
#	40042
#	52195
#	64964
#	75451
#	87435
#	108035
#	118149
#	134004
#	152326
#	165403
#	174698
#	184753
#
# Disc length: 2690 seconds
#
# Revision: 0
# Processed by: cddbd v1.4PL0 Copyright (c) Steve Scherf et al.
# Submitted via: audiograbber 1.80
#
DISCID=bd0a800f
DTITLE=Various Artist - The Nostalgic Collection
DYEAR=1900
DGENRE=
TTITLE0=Ben E. King - Stand by me
TTITLE1=The Platters - Only you
TTITLE2=Aaron Neville - Tell it like it is
TTITLE3=The Driffters - Under the boardwalk
TTITLE4=Carpenters - Please, Mr. Postman
TTITLE5=Roy Orbison - Bye Bye Love
TTITLE6=Johnny Nash - As time goes by
TTITLE7=Paul Anka - My way
TTITLE8=Tony Bennet - Blue Moon
TTITLE9=Ray Charles - Cry
TTITLE10=Dalila and Alain Delon - Parole, Parole
TTITLE11=Bj Thomas - Raindrops keep falling on my head
TTITLE12=Wayne Fontana - A groovy kind of love
TTITLE13=Beach Boys - Surfer Girl
TTITLE14=Shirley Bassey - Sorry seems to be the hardest word
EXTD=
EXTT0=
EXTT1=
EXTT2=
EXTT3=
EXTT4=
EXTT5=
EXTT6=
EXTT7=
EXTT8=
EXTT9=
EXTT10=
EXTT11=
EXTT12=
EXTT13=
EXTT14=
PLAYORDER=
